<?xml version="1.0" encoding="UTF-8"?>
<svg width="240px" height="240px" viewBox="0 0 240 240" version="1.1" xmlns="http://www.w3.org/2000/svg" xmlns:xlink="http://www.w3.org/1999/xlink">
    <!-- Generator: Sketch 53.2 (72643) - https://sketchapp.com -->
    <title>Artboard</title>
    <desc>Created with Sketch.</desc>
    <defs>
        <linearGradient x1="0%" y1="50%" x2="101.194755%" y2="50%" id="linearGradient-1">
            <stop stop-color="#FDF6E9" offset="0%"></stop>
            <stop stop-color="#F9EACF" offset="100%"></stop>
        </linearGradient>
        <path d="M109.798165,35.5704698 C134.50137,35.5704698 154.540895,55.602472 154.540895,80.3131991 C154.540895,91.5774647 146.81125,104.650296 131.35196,119.531691 C132.567328,125.050144 133.175012,129.277835 133.175012,132.214765 C133.175012,156.925492 113.14301,176.957494 88.432283,176.957494 C63.721556,176.957494 54.3132882,165.911642 47.410201,150.106503 C40.5071137,134.301364 7.50335283,130.425056 1.96818784,105.369128 C-3.56697715,80.3131991 4.98955127,55.5019575 46.7109171,60.6263982 C88.432283,65.7508389 85.0949609,35.5704698 109.798165,35.5704698 Z M136.2977,55.812762 L137.003925,54.5488327 L137.090563,54.3542397 C137.241626,54.0149476 137.243495,53.7019041 137.096169,53.4150999 C136.948844,53.1282956 136.665623,52.8915937 136.246497,52.704987 C135.837351,52.5228233 135.466381,52.4832072 135.133578,52.5861376 C134.800774,52.689068 134.530547,52.9334485 134.322889,53.3192867 L133.66998,54.4634664 C131.899152,53.7946162 130.396118,53.6724625 129.160834,54.0970017 C127.92555,54.5215409 126.974695,55.4822345 126.308243,56.9791115 C125.815068,58.0868005 125.667975,59.1422943 125.86696,60.1456245 C126.065945,61.1489547 126.618213,62.0973232 127.523779,62.9907585 L129.798176,65.2947711 L129.874659,65.3646955 C131.313354,66.8063855 131.854973,67.926381 131.499532,68.7247154 C131.232951,69.3234662 130.818178,69.6977946 130.255201,69.8477119 C129.692224,69.9976293 129.041515,69.9081976 128.303056,69.5794144 C127.484763,69.2150869 126.824596,68.7507718 126.322533,68.1864551 C125.820471,67.6221384 125.564083,67.0566046 125.553363,66.4898368 C125.557877,66.3722729 125.566868,66.1909402 125.580338,65.9458333 C125.644197,64.9698487 125.286944,64.3085886 124.508568,63.9620332 C123.98965,63.7309963 123.546025,63.7068602 123.177677,63.889624 C122.809329,64.0723878 122.480762,64.4880868 122.191966,65.1367335 L121.385562,66.9479456 C121.074551,67.6464882 120.959969,68.1724059 121.041813,68.5257146 C121.123656,68.8790232 121.434011,69.1756345 121.972887,69.4155574 C122.332137,69.575506 122.622949,69.6541656 122.845329,69.6515384 C123.067709,69.6489111 123.29817,69.5811294 123.536718,69.448191 C123.815994,69.7877649 124.099727,70.0904589 124.387924,70.356282 C124.676122,70.6221052 124.976533,70.860482 125.289167,71.0714197 L123.518474,74.4441896 L123.411843,74.6836887 C123.21635,75.1227726 123.168703,75.4782094 123.2689,75.7500096 C123.369098,76.0218099 123.623766,76.2487884 124.032912,76.4309521 C124.521892,76.64866 124.926678,76.7063211 125.247281,76.6039373 C125.567884,76.5015536 125.843118,76.2324987 126.072991,75.7967646 L127.727108,72.6052588 L127.81692,72.6452457 C129.603193,73.4405458 131.162205,73.6115367 132.494001,73.1582236 C133.825798,72.7049105 134.858229,71.6549873 135.591327,70.0084226 C136.106717,68.8508377 136.238841,67.7886795 135.987704,66.8219161 C135.736566,65.8551528 135.044628,64.7907914 133.911867,63.6288002 L131.600868,61.3264272 C130.806166,60.5062665 130.337415,59.8940113 130.194603,59.4896432 C130.051792,59.0852751 130.082575,58.6535764 130.286953,58.1945341 C130.553534,57.5957833 130.992981,57.226462 131.605308,57.0865591 C132.217634,56.9466561 132.932933,57.0588667 133.751226,57.4231941 C134.320039,57.6764461 134.771485,58.0388642 135.105576,58.5104594 C135.439667,58.9820545 135.623142,59.5300722 135.656007,60.1545288 C135.684499,60.6813799 135.762172,61.0507625 135.889028,61.2626877 C136.015883,61.4746128 136.243964,61.6538825 136.573277,61.8005021 C137.102174,62.035982 137.561588,62.0850834 137.951534,61.9478077 C138.34148,61.810532 138.647523,61.4924194 138.869674,60.9934604 L138.909661,60.9036482 L139.699457,59.0491697 C139.97383,58.4060592 140.065651,57.9178361 139.974921,57.5844858 C139.884192,57.2511356 139.594341,56.9756107 139.105362,56.7579028 C138.825945,56.6334983 138.568385,56.5875791 138.332676,56.6201439 C138.096966,56.6527087 137.875356,56.7543239 137.667839,56.9249927 C137.422873,56.6963534 137.188709,56.4904612 136.965341,56.30731 C136.741973,56.1241588 136.519428,55.9593111 136.2977,55.812762 Z M48.2492195,70.5197237 L47.2289147,69.4924707 L47.0657407,69.3555514 C46.7812306,69.1168191 46.480829,69.0287364 46.1645267,69.0913007 C45.8482244,69.1538649 45.5426256,69.3608707 45.247721,69.7123243 C44.959838,70.0554099 44.8195036,70.401089 44.8267135,70.7493718 C44.8339234,71.0976547 44.9943524,71.4247739 45.3080055,71.7307392 L46.2278955,72.6737343 C45.096849,74.1916036 44.5651351,75.6027422 44.6327379,76.9071924 C44.7003407,78.2116426 45.3617278,79.3904653 46.6169191,80.4436959 C47.5457607,81.2230865 48.5198221,81.6554147 49.5391327,81.7406934 C50.5584433,81.8259721 51.6222992,81.5565042 52.7307323,80.9322815 L55.5724001,79.3810633 L55.6606973,79.3268167 C57.4430969,78.3412377 58.668996,78.1293129 59.3384313,78.6910359 C59.8405078,79.1123281 60.0860085,79.6142122 60.0749408,80.1967033 C60.0638731,80.7791944 59.7985463,81.3800448 59.2789526,81.9992725 C58.7031865,82.6854438 58.0748914,83.1920551 57.3940482,83.5191216 C56.713205,83.8461881 56.0989091,83.9367613 55.551142,83.7908438 C55.4393764,83.7541002 55.2675467,83.6954749 55.0356476,83.6149661 C54.1150728,83.2845632 53.3809565,83.4457091 52.8332766,84.0984086 C52.4681567,84.5335416 52.3226756,84.9533293 52.396829,85.3577845 C52.4709825,85.7622397 52.7800127,86.1926608 53.3239289,86.6490607 L54.8427028,87.9234633 C55.4284587,88.4149709 55.9024202,88.6700768 56.2646014,88.6887887 C56.6267826,88.7075006 56.9974491,88.4909254 57.3766121,88.0390565 C57.6293875,87.7378106 57.7851583,87.4799465 57.8439292,87.2654565 C57.9027001,87.0509665 57.9010677,86.8107502 57.8390319,86.5448003 C58.2424302,86.3699421 58.6116056,86.1806346 58.9465692,85.9768723 C59.2815328,85.7731099 59.5934799,85.5500417 59.8824198,85.3076609 L62.6364653,87.9394213 L62.8372949,88.1079373 C63.2054843,88.416885 63.5340188,88.5606578 63.8229081,88.5392601 C64.1117975,88.5178623 64.4001793,88.3356234 64.6880623,87.9925378 C65.0321176,87.5825086 65.1991191,87.2092975 65.1890716,86.8728934 C65.1790241,86.5364892 64.9962568,86.1977557 64.640764,85.8566827 L62.0288281,83.3869452 L62.0920216,83.3116341 C63.3488767,81.8137725 63.9429655,80.362286 63.8743059,78.957131 C63.8056462,77.5519759 63.080972,76.2701409 61.7002616,75.1115872 C60.7295803,74.2970889 59.7449867,73.8773125 58.7464512,73.8522453 C57.7479158,73.8271781 56.5340618,74.1989346 55.1048528,74.9675261 L52.2546724,76.5543803 C51.2472336,77.0922307 50.529491,77.374062 50.1014232,77.3998826 C49.6733553,77.4257033 49.2668648,77.2771205 48.8819395,76.9541298 C48.379863,76.5328375 48.1459766,76.0086151 48.1802733,75.3814467 C48.21457,74.7542784 48.5195968,74.0976184 49.0953628,73.4114472 C49.4955904,72.9344745 49.9684043,72.6004132 50.5138187,72.4092534 C51.0592331,72.2180935 51.6365941,72.1927799 52.2459191,72.3333118 C52.7602144,72.4511432 53.1366973,72.478295 53.375379,72.414768 C53.6140607,72.3512411 53.8492533,72.1814091 54.080964,71.905267 C54.4531055,71.4617661 54.6269365,71.0336829 54.6024623,70.6210045 C54.5779881,70.2083261 54.3565557,69.8264542 53.9381586,69.4753774 L53.8628475,69.4121839 L52.2979054,68.1418205 C51.7553356,67.70081 51.3113347,67.4779737 50.9658894,67.4733049 C50.6204441,67.4686361 50.2756989,67.6713132 49.9316436,68.0813424 C49.7350406,68.3156448 49.6199072,68.5505697 49.5862401,68.7861243 C49.552573,69.0216789 49.5891678,69.2627132 49.6960256,69.5092344 C49.4087216,69.6816893 49.1462612,69.8500302 48.9086364,70.0142619 C48.6710116,70.1784937 48.4512082,70.3469793 48.2492195,70.5197237 Z M105.569062,86.982137 C105.860812,85.4794542 106.073999,84.4793706 106.208629,83.981856 C106.34326,83.4843414 106.474677,83.1150279 106.602884,82.8739044 C106.972122,82.1794685 107.466819,81.7435124 108.08699,81.5660228 C108.70716,81.3885332 109.369276,81.4869701 110.073357,81.8613365 C110.536314,82.1074952 110.882421,82.433796 111.111688,82.8402487 C111.340955,83.2467015 111.434391,83.7108285 111.391999,84.2326438 C111.385036,84.3155433 111.369769,84.4373266 111.346197,84.5979973 C111.252758,85.4019626 111.432691,85.9244526 111.886003,86.165483 C112.44541,86.4629248 112.906749,86.5783221 113.270035,86.5116785 C113.63332,86.4450348 113.932909,86.1898831 114.168811,85.7462158 L114.245736,85.6015424 L114.805095,84.3401312 C115.193388,83.4702514 115.0729,82.5742017 114.443627,81.6519552 C113.814355,80.7297087 112.752251,79.8711546 111.257285,79.0762671 C109.415101,78.0967605 107.774391,77.7563549 106.335105,78.0550402 C104.895819,78.3537255 103.768493,79.2698273 102.953092,80.8033731 C102.681292,81.314555 102.45265,81.9074397 102.26716,82.5820448 C102.08167,83.25665 101.928469,84.0566629 101.807553,84.9821074 L100.563362,84.3205592 C100.389753,84.2282497 100.232472,84.2157582 100.091514,84.2830844 C99.9505567,84.3504107 99.8211044,84.4949884 99.7031533,84.7168221 L99.1569914,85.7440033 C99.0185271,86.0044167 98.9601874,86.2362919 98.9819706,86.4396357 C99.0037537,86.6429795 99.1014483,86.790804 99.2750572,86.8831135 L101.170279,87.8908207 C101.040094,88.6010182 100.891328,89.2240019 100.723976,89.7597903 C100.556623,90.2955788 100.360127,90.7756546 100.134481,91.200032 C99.8319114,91.7690836 99.5337804,92.1610974 99.2400795,92.3760853 C98.9463787,92.5910731 98.5274528,92.7332862 97.9832892,92.802729 C97.7822037,92.8318987 97.5152543,92.8569748 97.1824329,92.8779579 C96.585528,92.9069859 96.2229772,93.0420596 96.0947695,93.2831831 C95.9152788,93.6207561 95.8429185,94.0709567 95.8776864,94.6337984 C95.9124544,95.1966402 96.0648652,95.549852 96.3349236,95.6934446 C96.3638585,95.7088295 96.7685521,95.7446218 97.5490167,95.8008226 C98.3294813,95.8570234 98.9994069,96.033842 99.5588135,96.3312838 C99.9928359,96.5620576 100.636802,97.0436403 101.490732,97.7760463 C102.344662,98.5084523 103.051319,99.0233685 103.610726,99.3208103 C104.6138,99.8541542 105.612602,100.069752 106.607161,99.9676118 C107.60172,99.865471 108.263096,99.5057679 108.591307,98.8884916 C108.801568,98.493049 108.853815,98.0166898 108.748051,97.4593996 C108.642287,96.9021095 108.425444,96.5362887 108.097516,96.3619263 C107.894972,96.2542319 107.445595,96.1977737 106.749371,96.1925502 C106.053146,96.1873267 105.512144,96.0821503 105.126346,95.8770181 C105.078121,95.8513765 104.761525,95.6149959 104.176548,95.1678692 C103.59157,94.7207424 103.002967,94.321176 102.410721,93.9691578 C102.805459,93.6223166 103.141404,93.281338 103.418568,92.9462117 C103.695731,92.6110854 103.916363,92.2892081 104.080468,91.9805699 C104.188163,91.7780261 104.293539,91.5216744 104.396599,91.2115071 C104.499659,90.9013398 104.62983,90.4354841 104.787114,89.8139261 L108.924774,92.0139587 C109.098382,92.1062682 109.254381,92.1211708 109.392775,92.0586671 C109.531168,91.9961633 109.659338,91.8539968 109.777289,91.6321631 L110.331144,90.5905146 C110.469608,90.3301011 110.527948,90.098226 110.506165,89.8948821 C110.484381,89.6915383 110.386687,89.5437139 110.213078,89.4514044 L105.569062,86.982137 Z M18.081802,106.002333 C16.7695266,105.214229 15.9026696,104.67185 15.4812051,104.375179 C15.0597406,104.078508 14.7576466,103.828704 14.5749142,103.625759 C14.0486449,103.041278 13.8081764,102.427309 13.8535016,101.783834 C13.8988268,101.140359 14.2177841,100.551842 14.8103833,100.018263 C15.2000375,99.6674167 15.6250355,99.4537841 16.08539,99.3773587 C16.5457445,99.3009333 17.0138383,99.3718728 17.4896855,99.5901792 C17.5652039,99.6250759 17.6744211,99.6810747 17.8173402,99.7581774 C18.5408622,100.120954 19.0933831,100.130574 19.4749196,99.7870372 C19.9457517,99.363098 20.211977,98.9690493 20.2736034,98.6048792 C20.3352298,98.2407091 20.1979312,97.8719203 19.8617036,97.4985017 L19.7520646,97.3767353 L18.7580381,96.4196814 C18.0734225,95.7572889 17.1902018,95.5640436 16.1083497,95.8399396 C15.0264975,96.1158356 13.8564598,96.8202436 12.5982013,97.9531846 C11.0477022,99.3492602 10.1666697,100.774598 9.95507725,102.229241 C9.74348484,103.683883 10.2187706,105.056549 11.3809488,106.347279 C11.7683415,106.777522 12.2472708,107.195153 12.817751,107.600185 C13.3882312,108.005217 14.0875996,108.4228 14.9158772,108.852944 L13.8686867,109.795839 C13.7225664,109.927406 13.657035,110.07093 13.6720907,110.226413 C13.6871463,110.381897 13.7787297,110.552991 13.9468435,110.7397 L14.7252797,111.604241 C14.9226307,111.823422 15.1205687,111.957549 15.3190997,112.006627 C15.5176306,112.055706 15.6899537,112.014462 15.836074,111.882894 L17.431213,110.446625 C18.0540547,110.81186 18.5885867,111.164728 19.0348253,111.505238 C19.4810638,111.845748 19.8649819,112.19459 20.1865909,112.551773 C20.6178394,113.030723 20.8842451,113.444951 20.985816,113.79447 C21.0873868,114.143988 21.0777424,114.58629 20.9568823,115.121387 C20.9155176,115.320322 20.8477793,115.579749 20.7536654,115.899676 C20.5767893,116.470511 20.5797174,116.857395 20.7624498,117.06034 C21.0182752,117.344463 21.4165767,117.566437 21.9573662,117.726269 C22.4981558,117.886101 22.8821939,117.863687 23.1094922,117.659027 C23.1338456,117.637099 23.3058928,117.269053 23.6256388,116.554878 C23.9453849,115.840703 24.3406681,115.271654 24.8115003,114.847715 C25.1768011,114.518797 25.8495903,114.078377 26.829888,113.526443 C27.8101857,112.97451 28.5357398,112.48658 29.006572,112.062641 C29.8508228,111.302474 30.3950293,110.437647 30.6392076,109.468133 C30.883386,108.498618 30.7715794,107.754103 30.3037844,107.234564 C30.0041033,106.901734 29.5743417,106.689713 29.0144868,106.598495 C28.4546319,106.507276 28.0367082,106.585924 27.7607031,106.83444 C27.5902294,106.987935 27.38348,107.390902 27.1404487,108.043352 C26.8974175,108.695802 26.6135502,109.168206 26.2888383,109.460578 C26.2482494,109.497125 25.917842,109.713781 25.2976062,110.110553 C24.6773705,110.507326 24.1005868,110.923772 23.5672377,111.359904 C23.3763219,110.870345 23.170807,110.438038 22.9506868,110.06297 C22.7305666,109.687901 22.5035611,109.370487 22.2696636,109.110718 C22.1161684,108.940244 21.9113173,108.753546 21.655104,108.550617 C21.3988908,108.347689 21.0056505,108.066036 20.4753715,107.705652 L23.9578887,104.56998 C24.104009,104.438412 24.1713677,104.296918 24.1599667,104.145494 C24.1485657,103.994069 24.0588097,103.825004 23.8906958,103.638295 L23.1012957,102.761577 C22.9039447,102.542397 22.7060067,102.408269 22.5074757,102.359191 C22.3089448,102.310113 22.1366217,102.351357 21.9905014,102.482924 L18.081802,106.002333 Z M78.6273426,68.3844196 L78.6857401,68.3546646 C79.1334569,68.1265415 79.4046782,67.8167125 79.499412,67.4251685 C79.5941459,67.0336245 79.5051362,66.5702026 79.2323803,66.034889 C78.9447468,65.4703765 78.616043,65.12602 78.2462591,65.0018091 C77.8764752,64.8775982 77.4044676,64.9617878 76.8302221,65.2543805 L73.4869621,66.9578565 C72.8445858,67.2851636 72.4479385,67.6435758 72.2970083,68.0331038 C72.146078,68.4226318 72.2144287,68.8996449 72.5020622,69.4641574 C72.7698589,69.989738 73.1082491,70.3230292 73.517243,70.464041 C73.926237,70.6050529 74.3837844,70.5466205 74.8898991,70.2887422 L75.1234893,70.169722 L76.8711782,71.6147126 L75.3528418,72.3883436 C75.0024547,72.5668747 74.7831534,72.7981457 74.6949312,73.0821635 C74.6067091,73.3661813 74.6518629,73.6833789 74.830394,74.033766 C75.0188436,74.403619 75.2502073,74.6351327 75.524492,74.7283141 C75.7987768,74.8214954 76.1159745,74.7763416 76.4760946,74.5928513 L79.1331833,73.238997 L81.1599293,74.7624763 L77.5100822,76.6221663 C77.1596951,76.8006974 76.9416336,77.0344016 76.855891,77.3232859 C76.7701485,77.6121701 76.8165421,77.931801 76.9950732,78.2821881 C77.1835227,78.6520411 77.4148864,78.8835548 77.6891712,78.9767362 C77.963456,79.0699175 78.2806537,79.0247637 78.6407737,78.8412734 L83.6337646,76.2972174 L85.4934546,79.9470646 L83.4495402,80.988491 C82.8071639,81.3157981 82.4080834,81.67545 82.2522867,82.0674576 C82.09649,82.4594652 82.1648869,82.9425845 82.4574796,83.51683 C82.7500723,84.0910755 83.0995279,84.4340531 83.5058568,84.5457733 C83.9121857,84.6574935 84.4413969,84.5472221 85.0935062,84.2149559 L92.6705889,80.3542394 C93.3032322,80.0318915 93.70222,79.6600272 93.8675643,79.2386353 C94.0329085,78.8172433 93.9717648,78.3242985 93.6841313,77.759786 C93.401457,77.2050064 93.0509007,76.8779141 92.632452,76.7784992 C92.2140032,76.6790843 91.6787322,76.7955083 91.0266229,77.1277745 L88.9827085,78.1692009 L87.1230185,74.5193538 L91.8824192,72.094318 C92.2328062,71.9157869 92.4557342,71.6796031 92.5512097,71.3857597 C92.6466852,71.0919162 92.6051581,70.7698058 92.4266269,70.4194187 C92.2480958,70.0690316 92.011912,69.8461037 91.7180686,69.7506282 C91.4242251,69.6551526 91.1021147,69.6966798 90.7517276,69.875211 L87.0726817,71.7497785 L87.08985,69.1848727 L89.71774,67.8458959 C90.07786,67.6624056 90.304461,67.4274153 90.3975496,67.1409179 C90.4906383,66.8544206 90.4454381,66.5311167 90.2619478,66.1709967 C90.0834166,65.8206096 89.8484727,65.6001148 89.5571088,65.5095058 C89.265745,65.4188967 88.9448743,65.4628571 88.5944872,65.6413883 L87.0761508,66.4150193 L86.9927922,64.1220101 L87.2263824,64.00299 C87.7130312,63.7550301 88.018271,63.421738 88.142111,63.0031038 C88.2659511,62.5844696 88.1964534,62.1172357 87.9336159,61.601388 C87.6509416,61.0466085 87.3040119,60.7146034 86.8928165,60.6053628 C86.4816211,60.4961222 85.9499767,60.6076334 85.2978675,60.9398997 L82.4801855,62.3755804 C81.9156729,62.6632139 81.5749894,62.9931111 81.4581246,63.3652819 C81.3412598,63.7374527 81.4266428,64.2057873 81.7142763,64.7702998 C81.9771138,65.2861474 82.2947986,65.6269237 82.6673403,65.7926388 C83.0398819,65.9583539 83.4354058,65.934589 83.8539237,65.7213435 L83.9123212,65.6915885 L84.2227415,72.7973238 L78.6273426,68.3844196 Z M50.8701326,101.682016 L50.9188391,101.725871 C51.2922578,102.062099 51.678705,102.204273 52.0781924,102.152398 C52.4776798,102.100523 52.8784232,101.851349 53.2804345,101.404871 C53.7043737,100.934038 53.9080613,100.503761 53.8915035,100.114024 C53.8749456,99.7242882 53.6271955,99.313802 53.1482455,98.8825535 L50.3597963,96.3718227 C49.8240218,95.8894091 49.3472695,95.6475503 48.9295253,95.6462392 C48.511781,95.644928 48.0909456,95.879685 47.6670064,96.3505172 C47.2723043,96.7888782 47.0824184,97.2242336 47.0973428,97.6565965 C47.1122673,98.0889593 47.3307889,98.4951764 47.7529144,98.8752598 L47.9477405,99.0506821 L47.2250413,101.200129 L45.9586714,100.059884 C45.6664307,99.7967492 45.3719301,99.6748939 45.0751607,99.6943143 C44.7783913,99.7137347 44.4984434,99.8695629 44.2353087,100.161804 C43.9575554,100.47028 43.8243321,100.769244 43.8356347,101.058704 C43.8469373,101.348164 44.0027655,101.628112 44.303124,101.898556 L46.5192713,103.893984 L45.8233016,106.33208 L42.7791432,103.591108 C42.4869025,103.327973 42.1905746,103.208147 41.8901506,103.231626 C41.5897265,103.255106 41.3079513,103.412963 41.0448167,103.705204 C40.7670634,104.01368 40.63384,104.312644 40.6451426,104.602104 C40.6564452,104.891564 40.8122734,105.171512 41.1126319,105.441956 L45.2770406,109.191606 L42.5360681,112.235765 L40.8313394,110.70082 C40.2955648,110.218407 39.8167831,109.974721 39.3949799,109.969755 C38.9731768,109.964789 38.5466574,110.201778 38.1154088,110.680728 C37.6841603,111.159678 37.4891968,111.608835 37.5305122,112.028212 C37.5718277,112.44759 37.8644273,112.902133 38.4083196,113.391856 L44.7279925,119.082115 C45.2556493,119.55722 45.745799,119.796443 46.1984563,119.799791 C46.6511137,119.80314 47.0894054,119.569402 47.5133446,119.09857 C47.9299745,118.635855 48.1097133,118.191364 48.0525665,117.765081 C47.9954197,117.338798 47.6949046,116.880802 47.1510122,116.391079 L45.4462835,114.856135 L48.1872561,111.811976 L52.1568387,115.386204 C52.4490793,115.649339 52.7494661,115.77282 53.058008,115.75665 C53.3665498,115.74048 53.6523838,115.586277 53.9155185,115.294036 C54.1786532,115.001795 54.3021337,114.701409 54.2859637,114.392867 C54.2697937,114.084325 54.1155907,113.798491 53.82335,113.535356 L50.7548383,110.772456 L53.1555367,109.869304 L55.3473307,111.842804 C55.6476892,112.113248 55.9482781,112.240585 56.2491064,112.224819 C56.5499347,112.209054 56.8355666,112.050994 57.1060105,111.750636 C57.3691452,111.458395 57.4907984,111.160038 57.4709738,110.855555 C57.4511491,110.551072 57.2951188,110.267267 57.0028782,110.004132 L55.7365082,108.863888 L57.8473437,107.964325 L58.0421698,108.139747 C58.4480597,108.505212 58.8686028,108.670737 59.3038118,108.636326 C59.7390208,108.601916 60.1503155,108.369592 60.5377082,107.939349 C60.9543381,107.476635 61.1399631,107.033768 61.0945887,106.610736 C61.0492143,106.187703 60.7545854,105.731333 60.210693,105.24161 L57.8606027,103.125579 C57.3897705,102.70164 56.9596949,102.501809 56.5703629,102.52608 C56.1810309,102.550352 55.7744014,102.7979 55.3504622,103.268732 C54.9630695,103.698975 54.7587755,104.117683 54.7375741,104.524867 C54.7163727,104.932052 54.8803022,105.292789 55.2293674,105.607088 L55.278074,105.650944 L48.7555433,108.487214 L50.8701326,101.682016 Z M111.332017,54.9380775 L107.188894,52.1435057 C107.501877,51.972506 107.820752,51.8318372 108.145527,51.7214952 C109.523395,51.2805533 110.909624,51.5304242 112.304256,52.4711154 C113.218917,53.0880622 113.807588,53.7585276 114.070285,54.4825316 C114.332982,55.2065357 114.291911,56.0780961 113.947072,57.097239 C113.762116,57.684 113.710436,58.1366535 113.792029,58.4552132 C113.873623,58.7737729 114.104593,59.0613245 114.484947,59.3178766 C115.019254,59.6782713 115.461582,59.8185132 115.811945,59.7386066 C116.162307,59.6587 116.548222,59.3063182 116.9697,58.6814506 L119.32479,55.1312829 C119.709619,54.5607516 119.888614,54.0951534 119.861783,53.7344741 C119.834952,53.3737949 119.599667,53.0438048 119.15592,52.744494 C118.866127,52.5490257 118.580333,52.4550753 118.29853,52.46264 C118.016727,52.4702048 117.675319,52.5759106 117.274296,52.7797608 C116.775609,51.9954011 116.262707,51.3200437 115.735573,50.7536683 C115.20844,50.187293 114.623392,49.6872652 113.980413,49.2535699 C111.698287,47.7142571 109.271019,47.2497087 106.698534,47.859911 C105.412291,48.1650121 104.244523,48.6949437 103.195195,49.4497218 L100.709321,47.7729787 C100.537256,47.6569194 100.354131,47.6256322 100.159941,47.6791164 C99.965751,47.7326005 99.7999924,47.8513751 99.6626603,48.0354438 L98.9391399,49.0495035 C98.789378,49.2910693 98.7222845,49.5126284 98.7378576,49.7141876 C98.7534306,49.9157467 98.8517761,50.0776077 99.0328972,50.1997754 L101.016163,51.5375049 C100.796474,51.8241378 100.58279,52.1214027 100.375105,52.4293085 C100.173528,52.7281582 99.9901731,53.0195279 99.8250337,53.3034262 L97.9776083,52.0573221 C97.8055433,51.9412628 97.6224186,51.9099756 97.4282286,51.9634598 C97.2340386,52.0169439 97.06828,52.1357185 96.9309479,52.3197872 L96.2718848,53.1796818 C96.1221229,53.4212475 96.0550294,53.6428066 96.0706025,53.8443658 C96.0861755,54.045925 96.184521,54.207786 96.3656421,54.3299537 L98.7020918,55.9059089 C98.3007859,57.2822508 98.2115065,58.6648043 98.4342509,60.053611 C98.8445809,62.6098663 100.236068,64.6881611 102.608753,66.2885577 C104.365628,67.4735843 106.184108,68.1863006 108.06425,68.4267281 C109.944392,68.6671556 111.153214,68.3889072 111.690752,67.5919747 C111.990063,67.1482281 112.120512,66.6960007 112.082103,66.2352788 C112.043695,65.7745569 111.8479,65.4250877 111.494714,65.1868607 C111.195864,64.985284 110.259865,64.8151047 108.686687,64.6763178 C107.11351,64.5375308 105.851497,64.147453 104.900612,63.5060727 C103.50598,62.5653815 102.753539,61.3661132 102.643267,59.9082319 C102.609173,59.4899491 102.631209,59.0568279 102.709375,58.6088554 L106.988338,61.4950525 C107.160403,61.6111118 107.364747,61.6402415 107.601376,61.5824424 C107.838005,61.5246433 108.018981,61.393075 108.14431,61.1877334 L108.803373,60.3278389 C108.943866,60.1195497 108.997215,59.9183664 108.963424,59.7242829 C108.929632,59.5301994 108.808593,59.3629138 108.600304,59.2224209 L103.723645,55.9330725 C103.888784,55.6491741 104.072139,55.3578045 104.273716,55.0589548 C104.487509,54.741993 104.701193,54.4447281 104.914774,54.1671512 L109.655593,57.3648743 C109.827658,57.4809336 110.032002,57.5100633 110.268631,57.4522642 C110.50526,57.3944651 110.686236,57.2628967 110.811565,57.0575552 L111.535085,56.0434955 C111.675578,55.8352063 111.728928,55.634023 111.695136,55.4399395 C111.661344,55.245856 111.540306,55.0785704 111.332017,54.9380775 Z M27.6431707,75.0561564 L23.1903572,77.3249783 C23.1925351,76.968334 23.2240968,76.6212426 23.2850434,76.2836934 C23.5673907,74.8648098 24.45799,73.7735262 25.956868,73.0098097 C26.9398984,72.5089306 27.8116937,72.3191161 28.57228,72.4403602 C29.3328662,72.5616043 30.0752388,73.0200662 30.79942,73.8157597 C31.2229442,74.2619931 31.5937888,74.5266446 31.9119647,74.6097221 C32.2301405,74.6927997 32.5936155,74.6301962 33.0024004,74.4219099 C33.5766459,74.1293172 33.9137492,73.810439 34.0137203,73.4652656 C34.1136915,73.1200923 33.9925866,72.6117256 33.6504019,71.9401504 L31.6871255,68.1591869 C31.374696,67.5460095 31.0542535,67.1637297 30.7257884,67.0123359 C30.3973233,66.8609421 29.9946389,66.9067449 29.5177231,67.1497456 C29.206268,67.3084399 28.9855414,67.5128529 28.855537,67.7629907 C28.7255325,68.0131285 28.6524671,68.3629776 28.6363388,68.8125487 C27.708554,68.868445 26.8692131,68.9896199 26.1182907,69.176077 C25.3673683,69.3625341 24.6463973,69.6318101 23.9553561,69.9839132 C21.5026466,71.2336311 19.9195803,73.1313506 19.2061097,75.6771285 C18.8493745,76.9500175 18.7467179,78.2282864 18.898137,79.5119737 L16.2264488,80.8732668 C16.0415223,80.9674916 15.9253774,81.1124878 15.8780104,81.3082598 C15.8306435,81.5040318 15.8541648,81.7065906 15.948575,81.9159423 L16.484722,83.0403733 C16.6233941,83.2884715 16.7846465,83.4545667 16.9684841,83.5386641 C17.1523217,83.6227614 17.3415674,83.6152182 17.5362269,83.5160342 L19.6677376,82.4299753 C19.8119252,82.7610818 19.968323,83.0920907 20.1369357,83.4230118 C20.3005893,83.7442 20.4665345,84.045825 20.6347764,84.3278958 L18.6492596,85.3395672 C18.464333,85.4337919 18.3481881,85.5787881 18.3008212,85.7745602 C18.2534542,85.9703322 18.2769755,86.172891 18.3713857,86.3822426 L18.8039463,87.3755573 C18.9426184,87.6236555 19.1038709,87.7897507 19.2877084,87.8738481 C19.471546,87.9579454 19.6607917,87.9504022 19.8554512,87.8512183 L22.366546,86.5717515 C23.3757648,87.5900054 24.5416899,88.3383662 25.8643562,88.8168563 C28.2990394,89.6972708 30.7913632,89.4878262 33.3414025,88.1885163 C35.2295995,87.2264319 36.7345722,85.9814845 37.8563658,84.4536368 C38.9781594,82.9257891 39.3208463,81.7336322 38.8844369,80.8771305 C38.6414361,80.4002147 38.3091521,80.0668771 37.8875747,79.8771077 C37.4659974,79.6873383 37.0654217,79.689158 36.6858357,79.8825667 C36.3646476,80.0462202 35.7620238,80.7823593 34.8779464,82.0910061 C33.993869,83.3996529 33.0408635,84.3143205 32.0189012,84.8350363 C30.5200231,85.5987528 29.106329,85.6754355 27.7777763,85.0650866 C27.395409,84.8921181 27.0272758,84.662864 26.6733657,84.3773173 L31.2721731,82.0341079 C31.4570996,81.9398832 31.5816449,81.7752822 31.6458127,81.5403002 C31.7099806,81.3053181 31.6826473,81.0832473 31.5638119,80.8740811 L31.1312513,79.8807664 C31.0171898,79.656908 30.8670954,79.5127116 30.6809636,79.4481729 C30.4948318,79.3836342 30.2898398,79.4083953 30.0659814,79.5224568 L24.8248009,82.1929717 C24.656559,81.9109008 24.4906138,81.6092759 24.3269603,81.2880877 C24.1533883,80.9474336 23.9969905,80.6164247 23.8577621,80.2950512 L28.9529487,77.6989239 C29.1378752,77.6046991 29.2624206,77.4400982 29.3265884,77.2051162 C29.3907562,76.9701341 29.3634229,76.7480633 29.2445876,76.5388971 L28.7084406,75.414466 C28.594379,75.1906076 28.4442846,75.0464112 28.2581529,74.9818725 C28.0720211,74.9173338 27.8670291,74.9420949 27.6431707,75.0561564 Z M51.6858907,126.427975 L50.9882601,125.159282 L50.8691472,124.98269 C50.6614621,124.674784 50.3969764,124.507312 50.0756821,124.480267 C49.7543878,124.453223 49.4035688,124.567976 49.0232146,124.824528 C48.6519165,125.074972 48.4217363,125.368578 48.3326671,125.705356 C48.2435979,126.042135 48.307646,126.400802 48.5248132,126.781369 L49.1491436,127.94139 C47.6435304,129.088701 46.7434517,130.298615 46.4488805,131.571167 C46.1543092,132.843718 46.4651478,134.159179 47.3814054,135.517586 C48.059436,136.522808 48.8765982,137.206876 49.8329164,137.569812 C50.7892346,137.932747 51.886154,137.966956 53.1237074,137.67244 L56.2828675,136.964583 L56.3826966,136.936776 C58.3677114,136.480673 59.6045356,136.614861 60.0932063,137.339345 C60.4597094,137.882709 60.5573618,138.43282 60.3861665,138.989695 C60.2149712,139.546571 59.794306,140.051012 59.1241581,140.503032 C58.3815619,141.00392 57.6379648,141.317724 56.8933445,141.444455 C56.1487243,141.571185 55.5332598,141.488927 55.0469326,141.197677 C54.9496246,141.13155 54.8006105,141.027833 54.5998861,140.886523 C53.8060442,140.315175 53.0559484,140.267728 52.3495764,140.744182 C51.8786617,141.061818 51.6231071,141.425244 51.582905,141.834471 C51.5427029,142.243697 51.7211217,142.742625 52.1181666,143.331268 L53.2268328,144.974934 C53.6544197,145.608857 54.039704,145.984722 54.3826972,146.10254 C54.7256904,146.220358 55.1416942,146.114342 55.630721,145.784489 C55.9567389,145.564587 56.1775524,145.359649 56.2931681,145.169667 C56.4087838,144.979685 56.4734272,144.748325 56.4871003,144.475578 C56.9230691,144.418685 57.3301235,144.33847 57.7082757,144.234929 C58.0864278,144.131389 58.4477766,144.002946 58.7923326,143.849597 L60.7142796,147.138525 L60.86088,147.35587 C61.129649,147.754336 61.4058274,147.983096 61.6894237,148.042155 C61.9730199,148.101215 62.3004622,148.005525 62.6717603,147.755081 C63.1155069,147.45577 63.3789099,147.143049 63.4619772,146.816907 C63.5450445,146.490765 63.4627248,146.114776 63.2150157,145.688928 L61.3850137,142.594917 L61.4665177,142.539942 C63.087551,141.446541 64.0587098,140.215036 64.3800231,138.845389 C64.7013364,137.475742 64.3580565,136.043816 63.3501731,134.549567 C62.6416005,133.499065 61.8108545,132.824159 60.85791,132.52483 C59.9049656,132.2255 58.6356642,132.248272 57.0499679,132.593146 L53.8728024,133.332912 C52.7561383,133.572239 51.9885167,133.645316 51.5699143,133.552145 C51.1513119,133.458974 50.8015232,133.204103 50.5205375,132.787524 C50.1540344,132.244161 50.0737037,131.675778 50.2795428,131.082359 C50.485382,130.48894 50.9595926,129.941794 51.7021888,129.440907 C52.2183838,129.092729 52.7649614,128.901934 53.3419382,128.868516 C53.9189149,128.835098 54.4808873,128.969907 55.0278723,129.272948 C55.489766,129.527973 55.8441805,129.657846 56.0911264,129.66257 C56.3380724,129.667293 56.6109661,129.568868 56.9098158,129.367291 C57.3897866,129.043547 57.6748794,128.679961 57.7651029,128.276523 C57.8553263,127.873086 57.74773,127.444972 57.4423108,126.992169 L57.3873356,126.910665 L56.2331764,125.258157 C55.8331837,124.684678 55.4678046,124.348091 55.1370282,124.248385 C54.8062517,124.148679 54.418996,124.248481 53.9752495,124.547791 C53.72168,124.718826 53.5462527,124.912916 53.4489621,125.130065 C53.3516716,125.347215 53.3204107,125.588999 53.3551786,125.855424 C53.0314692,125.942007 52.732775,126.031483 52.459087,126.123854 C52.185399,126.216225 51.9276695,126.317598 51.6858907,126.427975 Z M106.300175,109.5543 L105.27987,108.527047 L105.116696,108.390128 C104.832186,108.151395 104.531784,108.063313 104.215482,108.125877 C103.89918,108.188441 103.593581,108.395447 103.298676,108.7469 C103.010793,109.089986 102.870459,109.435665 102.877669,109.783948 C102.884879,110.132231 103.045308,110.45935 103.358961,110.765315 L104.278851,111.70831 C103.147804,113.22618 102.61609,114.637318 102.683693,115.941769 C102.751296,117.246219 103.412683,118.425041 104.667874,119.478272 C105.596716,120.257663 106.570777,120.689991 107.590088,120.77527 C108.609399,120.860548 109.673254,120.59108 110.781688,119.966858 L113.623355,118.415639 L113.711653,118.361393 C115.494052,117.375814 116.719951,117.163889 117.389387,117.725612 C117.891463,118.146904 118.136964,118.648788 118.125896,119.231279 C118.114828,119.813771 117.849502,120.414621 117.329908,121.033849 C116.754142,121.72002 116.125847,122.226631 115.445003,122.553698 C114.76416,122.880764 114.149864,122.971337 113.602097,122.82542 C113.490332,122.788676 113.318502,122.730051 113.086603,122.649542 C112.166028,122.319139 111.431912,122.480285 110.884232,123.132985 C110.519112,123.568118 110.373631,123.987905 110.447784,124.392361 C110.521938,124.796816 110.830968,125.227237 111.374884,125.683637 L112.893658,126.958039 C113.479414,127.449547 113.953375,127.704653 114.315557,127.723365 C114.677738,127.742077 115.048404,127.525502 115.427567,127.073633 C115.680343,126.772387 115.836114,126.514523 115.894884,126.300033 C115.953655,126.085543 115.952023,125.845326 115.889987,125.579376 C116.293385,125.404518 116.662561,125.215211 116.997524,125.011448 C117.332488,124.807686 117.644435,124.584618 117.933375,124.342237 L120.687421,126.973997 L120.88825,127.142514 C121.25644,127.451461 121.584974,127.595234 121.873863,127.573836 C122.162753,127.552438 122.451135,127.3702 122.739018,127.027114 C123.083073,126.617085 123.250074,126.243874 123.240027,125.90747 C123.229979,125.571065 123.047212,125.232332 122.691719,124.891259 L120.079783,122.421521 L120.142977,122.34621 C121.399832,120.848349 121.993921,119.396862 121.925261,117.991707 C121.856601,116.586552 121.131927,115.304717 119.751217,114.146163 C118.780536,113.331665 117.795942,112.911889 116.797406,112.886821 C115.798871,112.861754 114.585017,113.233511 113.155808,114.002102 L110.305628,115.588956 C109.298189,116.126807 108.580446,116.408638 108.152378,116.434459 C107.724311,116.460279 107.31782,116.311697 106.932895,115.988706 C106.430818,115.567414 106.196932,115.043191 106.231229,114.416023 C106.265525,113.788855 106.570552,113.132195 107.146318,112.446023 C107.546546,111.969051 108.01936,111.634989 108.564774,111.44383 C109.110188,111.25267 109.687549,111.227356 110.296874,111.367888 C110.81117,111.485719 111.187653,111.512871 111.426334,111.449344 C111.665016,111.385817 111.900209,111.215985 112.131919,110.939843 C112.504061,110.496342 112.677892,110.068259 112.653418,109.655581 C112.628943,109.242902 112.407511,108.86103 111.989114,108.509954 L111.913803,108.44676 L110.348861,107.176397 C109.806291,106.735386 109.36229,106.51255 109.016845,106.507881 C108.671399,106.503212 108.326654,106.705889 107.982599,107.115919 C107.785996,107.350221 107.670862,107.585146 107.637195,107.820701 C107.603528,108.056255 107.640123,108.297289 107.746981,108.543811 C107.459677,108.716266 107.197216,108.884606 106.959592,109.048838 C106.721967,109.21307 106.502163,109.381555 106.300175,109.5543 Z M79.7208712,155.393793 C79.2730047,153.930034 78.991727,152.946927 78.8770294,152.444443 C78.7623319,151.941958 78.704984,151.554177 78.704984,151.281088 C78.704984,150.494591 78.9371065,149.877418 79.4013583,149.429552 C79.8656101,148.981685 80.496437,148.757755 81.2938578,148.757755 C81.8181893,148.757755 82.2769724,148.883375 82.670221,149.134617 C83.0634696,149.385859 83.3638634,149.751793 83.5714113,150.23243 C83.604182,150.308895 83.6478756,150.423591 83.7024935,150.576521 C83.9974299,151.330248 84.4015961,151.707105 84.915004,151.707105 C85.5485712,151.707105 86.0100852,151.592409 86.2995599,151.363014 C86.5890345,151.133619 86.7337697,150.767685 86.7337697,150.265201 L86.7337697,150.101348 L86.635458,148.724985 C86.5699166,147.774634 86.0428621,147.040035 85.0542788,146.521165 C84.0656955,146.002295 82.7248471,145.742864 81.0316934,145.742864 C78.945291,145.742864 77.3368191,146.212571 76.2062293,147.151998 C75.0756396,148.091426 74.5103532,149.429543 74.5103532,151.166391 C74.5103532,151.74534 74.586817,152.376167 74.739747,153.058891 C74.8926771,153.741614 75.1329921,154.519907 75.4606992,155.393793 L74.0515654,155.393793 C73.8549411,155.393793 73.7102059,155.456602 73.6173556,155.582223 C73.5245052,155.707844 73.4780807,155.896273 73.4780807,156.147515 L73.4780807,157.31087 C73.4780807,157.605806 73.5354286,157.837929 73.6501261,158.007244 C73.7648236,158.17656 73.9204822,158.261216 74.1171065,158.261216 L76.2635778,158.261216 C76.4820492,158.949401 76.6431695,159.569305 76.7469435,160.120945 C76.8507174,160.672585 76.9026036,161.188716 76.9026036,161.669354 C76.9026036,162.313844 76.8234089,162.799936 76.6650171,163.127643 C76.5066253,163.45535 76.2035007,163.777591 75.7556342,164.094375 C75.5917806,164.214534 75.3678507,164.362 75.0838379,164.536777 C74.57043,164.842637 74.3137298,165.132107 74.3137298,165.405197 C74.3137298,165.787522 74.4611959,166.218996 74.7561323,166.699634 C75.0510688,167.180271 75.3514625,167.420586 75.6573225,167.420586 C75.6900933,167.420586 76.06422,167.262196 76.779714,166.945413 C77.495208,166.628629 78.1697285,166.47024 78.8032957,166.47024 C79.2948565,166.47024 80.0895344,166.593128 81.1873535,166.838908 C82.2851725,167.084689 83.1508527,167.207577 83.7844199,167.207577 C84.9204714,167.207577 85.9035782,166.92903 86.7337697,166.371928 C87.5639612,165.814826 87.9790507,165.18673 87.9790507,164.487621 C87.9790507,164.039755 87.8015453,163.594626 87.4465292,163.152221 C87.0915131,162.709816 86.7283098,162.488617 86.3569083,162.488617 C86.1275133,162.488617 85.7042312,162.649738 85.0870494,162.971983 C84.4698675,163.294228 83.9428131,163.455349 83.5058702,163.455349 C83.4512523,163.455349 83.0607404,163.39527 82.3343229,163.275111 C81.6079053,163.154951 80.9006146,163.078488 80.2124295,163.045717 C80.3981302,162.554156 80.5346729,162.095373 80.6220614,161.669354 C80.70945,161.243334 80.7531436,160.855553 80.7531436,160.505999 C80.7531436,160.276604 80.7258351,160.000788 80.6712173,159.678542 C80.6165994,159.356297 80.512827,158.88386 80.359897,158.261216 L85.0460862,158.261216 C85.2427105,158.261216 85.3874457,158.201137 85.480296,158.080978 C85.5731464,157.960819 85.6195709,157.775121 85.6195709,157.523879 L85.6195709,156.344139 C85.6195709,156.049202 85.562223,155.81708 85.4475255,155.647764 C85.332828,155.478449 85.1771694,155.393793 84.9805451,155.393793 L79.7208712,155.393793 Z M125.607208,89.6569535 L125.665606,89.6271985 C126.113323,89.3990754 126.384544,89.0892464 126.479278,88.6977024 C126.574012,88.3061584 126.485002,87.8427365 126.212246,87.3074229 C125.924613,86.7429104 125.595909,86.3985539 125.226125,86.274343 C124.856341,86.1501321 124.384333,86.2343217 123.810088,86.5269144 L120.466828,88.2303904 C119.824452,88.5576975 119.427804,88.9161097 119.276874,89.3056377 C119.125944,89.6951657 119.194294,90.1721788 119.481928,90.7366913 C119.749725,91.2622719 120.088115,91.5955631 120.497109,91.7365749 C120.906103,91.8775868 121.36365,91.8191544 121.869765,91.5612761 L122.103355,91.4422559 L123.851044,92.8872465 L122.332708,93.6608775 C121.98232,93.8394086 121.763019,94.0706796 121.674797,94.3546974 C121.586575,94.6387152 121.631729,94.9559128 121.81026,95.3062999 C121.998709,95.6761529 122.230073,95.9076666 122.504358,96.000848 C122.778643,96.0940293 123.09584,96.0488755 123.45596,95.8653852 L126.113049,94.5115309 L128.139795,96.0350102 L124.489948,97.8947002 C124.139561,98.0732313 123.921499,98.3069355 123.835757,98.5958198 C123.750014,98.884704 123.796408,99.2043349 123.974939,99.554722 C124.163389,99.924575 124.394752,100.156089 124.669037,100.24927 C124.943322,100.342451 125.260519,100.297298 125.620639,100.113807 L130.61363,97.5697513 L132.47332,101.219598 L130.429406,102.261025 C129.78703,102.588332 129.387949,102.947984 129.232152,103.339991 C129.076356,103.731999 129.144753,104.215118 129.437345,104.789364 C129.729938,105.363609 130.079394,105.706587 130.485723,105.818307 C130.892052,105.930027 131.421263,105.819756 132.073372,105.48749 L139.650455,101.626773 C140.283098,101.304425 140.682086,100.932561 140.84743,100.511169 C141.012774,100.089777 140.951631,99.5968324 140.663997,99.0323199 C140.381323,98.4775403 140.030767,98.150448 139.612318,98.0510331 C139.193869,97.9516182 138.658598,98.0680422 138.006489,98.4003084 L135.962574,99.4417348 L134.102884,95.7918877 L138.862285,93.3668519 C139.212672,93.1883208 139.4356,92.952137 139.531075,92.6582936 C139.626551,92.3644501 139.585024,92.0423397 139.406493,91.6919526 C139.227962,91.3415655 138.991778,91.1186376 138.697934,91.0231621 C138.404091,90.9276865 138.08198,90.9692137 137.731593,91.1477449 L134.052547,93.0223124 L134.069716,90.4574066 L136.697606,89.1184298 C137.057726,88.9349395 137.284327,88.6999492 137.377415,88.4134518 C137.470504,88.1269545 137.425304,87.8036506 137.241814,87.4435306 C137.063282,87.0931435 136.828338,86.8726487 136.536975,86.7820397 C136.245611,86.6914306 135.92474,86.735391 135.574353,86.9139222 L134.056017,87.6875532 L133.972658,85.394544 L134.206248,85.2755239 C134.692897,85.027564 134.998137,84.6942719 135.121977,84.2756377 C135.245817,83.8570035 135.176319,83.3897696 134.913482,82.8739219 C134.630807,82.3191424 134.283878,81.9871373 133.872682,81.8778967 C133.461487,81.7686561 132.929843,81.8801673 132.277733,82.2124336 L129.460051,83.6481143 C128.895539,83.9357478 128.554855,84.265645 128.43799,84.6378158 C128.321126,85.0099866 128.406509,85.4783212 128.694142,86.0428337 C128.95698,86.5586813 129.274664,86.8994576 129.647206,87.0651727 C130.019748,87.2308878 130.415272,87.2071229 130.833789,86.9938774 L130.892187,86.9641224 L131.202607,94.0698577 L125.607208,89.6569535 Z M87.4119048,121.99987 L87.4606113,122.043726 C87.83403,122.379954 88.2204772,122.522128 88.6199646,122.470253 C89.019452,122.418377 89.4201954,122.169204 89.8222067,121.722725 C90.2461459,121.251893 90.4498336,120.821615 90.4332757,120.431879 C90.4167179,120.042143 90.1689677,119.631657 89.6900177,119.200408 L86.9015686,116.689677 C86.365794,116.207264 85.8890417,115.965405 85.4712975,115.964094 C85.0535532,115.962783 84.6327178,116.19754 84.2087786,116.668372 C83.8140766,117.106733 83.6241906,117.542088 83.6391151,117.974451 C83.6540395,118.406814 83.8725612,118.813031 84.2946866,119.193115 L84.4895127,119.368537 L83.7668135,121.517983 L82.5004436,120.377739 C82.2082029,120.114604 81.9137023,119.992749 81.6169329,120.012169 C81.3201635,120.031589 81.0402156,120.187418 80.7770809,120.479658 C80.4993277,120.788135 80.3661043,121.087098 80.3774069,121.376558 C80.3887095,121.666018 80.5445377,121.945966 80.8448962,122.21641 L83.0610435,124.211838 L82.3650739,126.649935 L79.3209154,123.908962 C79.0286748,123.645828 78.7323468,123.526002 78.4319228,123.549481 C78.1314987,123.57296 77.8497236,123.730818 77.5865889,124.023059 C77.3088356,124.331535 77.1756123,124.630499 77.1869149,124.919959 C77.1982175,125.209419 77.3540457,125.489367 77.6544041,125.759811 L81.8188128,129.509461 L79.0778403,132.55362 L77.3731116,131.018675 C76.837337,130.536261 76.3585553,130.292575 75.9367522,130.28761 C75.514949,130.282644 75.0884296,130.519632 74.6571811,130.998582 C74.2259326,131.477532 74.030969,131.926689 74.0722845,132.346067 C74.1135999,132.765445 74.4061995,133.219988 74.9500918,133.709711 L81.2697647,139.39997 C81.7974215,139.875074 82.2875712,140.114297 82.7402285,140.117646 C83.1928859,140.120995 83.6311776,139.887257 84.0551168,139.416425 C84.4717467,138.95371 84.6514856,138.509218 84.5943387,138.082936 C84.5371919,137.656653 84.2366768,137.198657 83.6927845,136.708934 L81.9880557,135.173989 L84.7290283,132.129831 L88.6986109,135.704059 C88.9908516,135.967194 89.2912383,136.090674 89.5997802,136.074504 C89.908322,136.058334 90.194156,135.904131 90.4572907,135.611891 C90.7204254,135.31965 90.8439059,135.019263 90.8277359,134.710721 C90.8115659,134.40218 90.6573629,134.116346 90.3651222,133.853211 L87.2966105,131.090311 L89.6973089,130.187159 L91.8891029,132.160659 C92.1894614,132.431103 92.4900503,132.55844 92.7908786,132.542674 C93.0917069,132.526908 93.3773388,132.368849 93.6477828,132.06849 C93.9109174,131.77625 94.0325706,131.477892 94.012746,131.173409 C93.9929214,130.868926 93.836891,130.585122 93.5446504,130.321987 L92.2782805,129.181742 L94.3891159,128.28218 L94.5839421,128.457602 C94.9898319,128.823067 95.410375,128.988591 95.845584,128.954181 C96.280793,128.91977 96.6920877,128.687447 97.0794804,128.257204 C97.4961103,127.79449 97.6817353,127.351623 97.6363609,126.92859 C97.5909865,126.505558 97.2963576,126.049187 96.7524652,125.559465 L94.4023749,123.443434 C93.9315427,123.019495 93.5014671,122.819664 93.1121351,122.843935 C92.7228032,122.868206 92.3161737,123.115754 91.8922345,123.586587 C91.5048417,124.01683 91.3005477,124.435537 91.2793463,124.842722 C91.258145,125.249907 91.4220744,125.610643 91.7711397,125.924943 L91.8198462,125.968799 L85.2973155,128.805069 L87.4119048,121.99987 Z M112.160475,147.012683 L108.017352,144.218111 C108.330336,144.047111 108.64921,143.906442 108.973985,143.7961 C110.351853,143.355158 111.738083,143.605029 113.132715,144.54572 C114.047376,145.162667 114.636046,145.833133 114.898743,146.557137 C115.16144,147.281141 115.12037,148.152701 114.775531,149.171844 C114.590575,149.758605 114.538894,150.211259 114.620488,150.529818 C114.702081,150.848378 114.933052,151.13593 115.313406,151.392482 C115.847713,151.752876 116.290041,151.893118 116.640403,151.813212 C116.990766,151.733305 117.37668,151.380923 117.798159,150.756056 L120.153249,147.205888 C120.538077,146.635357 120.717073,146.169758 120.690242,145.809079 C120.663411,145.4484 120.428126,145.11841 119.984379,144.819099 C119.694585,144.623631 119.408791,144.52968 119.126988,144.537245 C118.845186,144.54481 118.503778,144.650516 118.102755,144.854366 C117.604068,144.070006 117.091165,143.394649 116.564032,142.828273 C116.036899,142.261898 115.451851,141.76187 114.808871,141.328175 C112.526746,139.788862 110.099477,139.324314 107.526992,139.934516 C106.24075,140.239617 105.072982,140.769549 104.023653,141.524327 L101.537779,139.847584 C101.365714,139.731524 101.182589,139.700237 100.988399,139.753721 C100.794209,139.807206 100.628451,139.92598 100.491119,140.110049 L99.7675984,141.124109 C99.6178365,141.365674 99.5507431,141.587233 99.5663161,141.788793 C99.5818891,141.990352 99.6802347,142.152213 99.8613557,142.274381 L101.844621,143.61211 C101.624932,143.898743 101.411249,144.196008 101.203564,144.503914 C101.001987,144.802763 100.818632,145.094133 100.653492,145.378031 L98.8060668,144.131927 C98.6340019,144.015868 98.4508771,143.984581 98.2566871,144.038065 C98.0624971,144.091549 97.8967385,144.210324 97.7594064,144.394392 L97.1003433,145.254287 C96.9505814,145.495853 96.883488,145.717412 96.899061,145.918971 C96.914634,146.12053 97.0129796,146.282391 97.1941006,146.404559 L99.5305504,147.980514 C99.1292444,149.356856 99.039965,150.739409 99.2627095,152.128216 C99.6730394,154.684471 101.064526,156.762766 103.437212,158.363163 C105.194086,159.548189 107.012567,160.260906 108.892709,160.501333 C110.772851,160.741761 111.981673,160.463512 112.519211,159.66658 C112.818521,159.222833 112.94897,158.770606 112.910562,158.309884 C112.872153,157.849162 112.676359,157.499693 112.323173,157.261466 C112.024323,157.059889 111.088323,156.88971 109.515146,156.750923 C107.941968,156.612136 106.679956,156.222058 105.72907,155.580678 C104.334438,154.639987 103.581998,153.440718 103.471726,151.982837 C103.437632,151.564554 103.459668,151.131433 103.537833,150.68346 L107.816797,153.569658 C107.988862,153.685717 108.193206,153.714847 108.429835,153.657047 C108.666464,153.599248 108.84744,153.46768 108.972768,153.262339 L109.631831,152.402444 C109.772324,152.194155 109.825674,151.992971 109.791882,151.798888 C109.758091,151.604804 109.637052,151.437519 109.428763,151.297026 L104.552103,148.007678 C104.717243,147.723779 104.900598,147.43241 105.102175,147.13356 C105.315968,146.816598 105.529652,146.519333 105.743232,146.241756 L110.484052,149.439479 C110.656117,149.555539 110.860461,149.584668 111.09709,149.526869 C111.333719,149.46907 111.514695,149.337502 111.640023,149.13216 L112.363544,148.118101 C112.504036,147.909811 112.557386,147.708628 112.523595,147.514545 C112.489803,147.320461 112.368764,147.153175 112.160475,147.012683 Z M75.448739,97.502746 L70.9959255,99.7715678 C70.9981033,99.4149235 71.0296651,99.0678321 71.0906116,98.7302829 C71.3729589,97.3113994 72.2635582,96.2201157 73.7624363,95.4563992 C74.7454667,94.9555201 75.617262,94.7657056 76.3778482,94.8869497 C77.1384345,95.0081938 77.8808071,95.4666557 78.6049882,96.2623492 C79.0285125,96.7085826 79.399357,96.9732341 79.7175329,97.0563117 C80.0357088,97.1393892 80.3991838,97.0767857 80.8079687,96.8684994 C81.3822142,96.5759067 81.7193174,96.2570285 81.8192886,95.9118551 C81.9192598,95.5666818 81.7981548,95.0583151 81.4559702,94.3867399 L79.4926938,90.6057764 C79.1802643,89.992599 78.8598218,89.6103192 78.5313567,89.4589254 C78.2028916,89.3075316 77.8002072,89.3533344 77.3232914,89.5963351 C77.0118362,89.7550294 76.7911097,89.9594424 76.6611052,90.2095802 C76.5311007,90.459718 76.4580354,90.8095672 76.4419071,91.2591382 C75.5141223,91.3150345 74.6747813,91.4362094 73.9238589,91.6226665 C73.1729365,91.8091236 72.4519656,92.0783996 71.7609244,92.4305027 C69.3082148,93.6802206 67.7251485,95.5779401 67.011678,98.123718 C66.6549427,99.396607 66.5522862,100.674876 66.7037052,101.958563 L64.0320171,103.319856 C63.8470906,103.414081 63.7309456,103.559077 63.6835787,103.754849 C63.6362118,103.950621 63.6597331,104.15318 63.7541433,104.362532 L64.2902902,105.486963 C64.4289624,105.735061 64.5902148,105.901156 64.7740524,105.985254 C64.95789,106.069351 65.1471357,106.061808 65.3417951,105.962624 L67.4733059,104.876565 C67.6174935,105.207671 67.7738913,105.53868 67.942504,105.869601 C68.1061576,106.190789 68.2721028,106.492414 68.4403447,106.774485 L66.4548278,107.786157 C66.2699013,107.880381 66.1537563,108.025378 66.1063894,108.22115 C66.0590225,108.416922 66.0825438,108.61948 66.176954,108.828832 L66.6095146,109.822147 C66.7481867,110.070245 66.9094391,110.23634 67.0932767,110.320438 C67.2771143,110.404535 67.46636,110.396992 67.6610195,110.297808 L70.1721143,109.018341 C71.1813331,110.036595 72.3472581,110.784956 73.6699245,111.263446 C76.1046076,112.14386 78.5969314,111.934416 81.1469707,110.635106 C83.0351678,109.673021 84.5401405,108.428074 85.6619341,106.900226 C86.7837276,105.372379 87.1264146,104.180222 86.6900051,103.32372 C86.4470044,102.846804 86.1147204,102.513467 85.693143,102.323697 C85.2715656,102.133928 84.87099,102.135747 84.491404,102.329156 C84.1702158,102.49281 83.5675921,103.228949 82.6835147,104.537596 C81.7994373,105.846242 80.8464318,106.76091 79.8244694,107.281626 C78.3255914,108.045342 76.9118972,108.122025 75.5833446,107.511676 C75.2009772,107.338708 74.832844,107.109453 74.4789339,106.823907 L79.0777413,104.480697 C79.2626679,104.386473 79.3872132,104.221872 79.451381,103.98689 C79.5155489,103.751908 79.4882155,103.529837 79.3693802,103.320671 L78.9368196,102.327356 C78.822758,102.103497 78.6726636,101.959301 78.4865319,101.894762 C78.3004001,101.830224 78.0954081,101.854985 77.8715497,101.969046 L72.6303692,104.639561 C72.4621273,104.35749 72.2961821,104.055865 72.1325285,103.734677 C71.9589566,103.394023 71.8025588,103.063014 71.6633304,102.741641 L76.758517,100.145513 C76.9434435,100.051289 77.0679888,99.8866877 77.1321567,99.6517057 C77.1963245,99.4167236 77.1689912,99.1946528 77.0501559,98.9854866 L76.5140089,97.8610555 C76.3999473,97.6371971 76.2498529,97.4930007 76.0637212,97.428462 C75.8775894,97.3639233 75.6725974,97.3886844 75.448739,97.502746 Z" id="path-2"></path>
        <filter x="-1.3%" y="-2.8%" width="105.2%" height="105.7%" filterUnits="objectBoundingBox" id="filter-3">
            <feOffset dx="2" dy="0" in="SourceAlpha" result="shadowOffsetOuter1"></feOffset>
            <feGaussianBlur stdDeviation="1" in="shadowOffsetOuter1" result="shadowBlurOuter1"></feGaussianBlur>
            <feColorMatrix values="0 0 0 0 0.788235294   0 0 0 0 0.498039216   0 0 0 0 0.301960784  0 0 0 0.25 0" type="matrix" in="shadowBlurOuter1"></feColorMatrix>
        </filter>
        <filter x="-43.1%" y="-8.0%" width="186.2%" height="116.0%" filterUnits="objectBoundingBox" id="filter-4">
            <feOffset dx="4" dy="0" in="SourceAlpha" result="shadowOffsetOuter1"></feOffset>
            <feGaussianBlur stdDeviation="2" in="shadowOffsetOuter1" result="shadowBlurOuter1"></feGaussianBlur>
            <feColorMatrix values="0 0 0 0 0   0 0 0 0 0   0 0 0 0 0  0 0 0 0.25 0" type="matrix" in="shadowBlurOuter1" result="shadowMatrixOuter1"></feColorMatrix>
            <feMerge>
                <feMergeNode in="shadowMatrixOuter1"></feMergeNode>
                <feMergeNode in="SourceGraphic"></feMergeNode>
            </feMerge>
        </filter>
        <linearGradient x1="0%" y1="50%" x2="100%" y2="50%" id="linearGradient-5">
            <stop stop-color="#EFD39F" offset="0%"></stop>
            <stop stop-color="#DBA766" offset="100%"></stop>
        </linearGradient>
        <linearGradient x1="0%" y1="50%" x2="100%" y2="50%" id="linearGradient-6">
            <stop stop-color="#F7E0B0" offset="0%"></stop>
            <stop stop-color="#ECBE78" offset="100%"></stop>
        </linearGradient>
    </defs>
    <g id="Artboard" stroke="none" stroke-width="1" fill="none" fill-rule="evenodd">
        <g id="Group" transform="translate(42.500000, 20.000000)">
            <g id="Combined-Shape">
                <use fill="black" fill-opacity="1" filter="url(#filter-3)" xlink:href="#path-2"></use>
                <use fill="url(#linearGradient-1)" fill-rule="evenodd" xlink:href="#path-2"></use>
            </g>
            <g id="Rolling-Pin" filter="url(#filter-4)" transform="translate(40.137363, 0.000000)">
                <rect id="Rectangle" fill="url(#linearGradient-5)" x="12.9389878" y="0" width="11.090561" height="29.5748292" rx="5.54528048"></rect>
                <rect id="Rectangle-Copy" fill="url(#linearGradient-5)" x="12.9389878" y="170.055268" width="11.090561" height="29.5748292" rx="5.54528048"></rect>
                <rect id="Rectangle" fill="url(#linearGradient-6)" x="0" y="25.8779756" width="36.9685365" height="147.874146" rx="8"></rect>
            </g>
        </g>
    </g>
</svg>